<svg width="170" height="27" viewBox="0 0 170 27" fill="none" xmlns="http://www.w3.org/2000/svg">
<path d="M0 21.0732V0H8.13248C9.66769 0 10.9436 0.240092 11.9601 0.720274C12.9836 1.1936 13.7478 1.84184 14.2526 2.66502C14.7643 3.48819 15.0202 4.42111 15.0202 5.4638C15.0202 6.32127 14.8542 7.05526 14.5223 7.66578C14.1903 8.26944 13.7443 8.75991 13.1842 9.13719C12.624 9.51448 11.9982 9.78544 11.3066 9.95008V10.1559C12.0604 10.197 12.7831 10.4268 13.4746 10.8453C14.1731 11.2569 14.7436 11.8399 15.1862 12.5945C15.6287 13.3491 15.85 14.2614 15.85 15.3316C15.85 16.4223 15.5838 17.4032 15.0513 18.2744C14.5188 19.1387 13.7166 19.8213 12.6448 20.322C11.5729 20.8228 10.2244 21.0732 8.59926 21.0732H0ZM3.8484 17.8834H7.98725C9.38416 17.8834 10.3903 17.6193 11.0058 17.0911C11.6282 16.556 11.9394 15.87 11.9394 15.0332C11.9394 14.4089 11.7838 13.8464 11.4726 13.3457C11.1614 12.838 10.7188 12.4402 10.1448 12.1521C9.57087 11.8571 8.88625 11.7096 8.09098 11.7096H3.8484V17.8834ZM3.8484 8.96227H7.65531C8.31919 8.96227 8.91737 8.84223 9.44985 8.60213C9.98234 8.35518 10.4007 8.00877 10.705 7.56288C11.0162 7.11014 11.1718 6.57508 11.1718 5.9577C11.1718 5.14139 10.8813 4.46913 10.3004 3.94093C9.72647 3.41273 8.87242 3.14863 7.7383 3.14863H3.8484V8.96227Z" fill="#2A2A2A"/>
<path d="M26.0856 21.3819C24.4882 21.3819 23.1086 21.0526 21.9468 20.3941C20.7919 19.7287 19.9033 18.7889 19.2809 17.5747C18.6585 16.3537 18.3473 14.9165 18.3473 13.2633C18.3473 11.6376 18.6585 10.2107 19.2809 8.98285C19.9102 7.74809 20.7885 6.78773 21.9157 6.10175C23.0429 5.40892 24.3672 5.0625 25.8886 5.0625C26.8705 5.0625 27.7972 5.22027 28.6685 5.53582C29.5468 5.84451 30.3213 6.3247 30.9921 6.97637C31.6698 7.62805 32.2023 8.45808 32.5895 9.46646C32.9768 10.468 33.1704 11.6616 33.1704 13.0473V14.1894H20.1108V11.6787H29.571C29.5641 10.9653 29.4085 10.3308 29.1042 9.77515C28.7999 9.21265 28.3746 8.7702 27.8283 8.44779C27.2889 8.12538 26.6596 7.96418 25.9404 7.96418C25.1728 7.96418 24.4986 8.14939 23.9177 8.51982C23.3368 8.88338 22.8838 9.36357 22.5588 9.96037C22.2407 10.5503 22.0782 11.1986 22.0713 11.9051V14.0968C22.0713 15.016 22.2407 15.8049 22.5795 16.4634C22.9184 17.1151 23.3921 17.6159 24.0007 17.9657C24.6092 18.3087 25.3215 18.4802 26.1375 18.4802C26.6838 18.4802 27.1783 18.4047 27.6209 18.2538C28.0634 18.096 28.4472 17.8662 28.7723 17.5644C29.0973 17.2626 29.3428 16.8887 29.5087 16.4428L33.0148 16.8338C32.7935 17.753 32.3717 18.5556 31.7493 19.2416C31.1339 19.9207 30.3455 20.4489 29.3843 20.8262C28.423 21.1966 27.3235 21.3819 26.0856 21.3819Z" fill="#2A2A2A"/>
<path d="M35.0194 8.32431V5.26829H48.9608V8.32431H43.8054V21.0732H40.1748V8.32431H35.0194Z" fill="#2A2A2A"/>
<path d="M58.2447 21.3819C56.6542 21.3819 55.2884 21.0354 54.1473 20.3426C53.0132 19.6498 52.1384 18.6928 51.523 17.4718C50.9144 16.2439 50.6101 14.8308 50.6101 13.2325C50.6101 11.6273 50.9213 10.2107 51.5437 8.98285C52.1661 7.74809 53.0443 6.78773 54.1785 6.10175C55.3195 5.40892 56.668 5.0625 58.224 5.0625C59.5171 5.0625 60.6616 5.29916 61.6574 5.77248C62.6602 6.23895 63.4589 6.90092 64.0536 7.75838C64.6483 8.60899 64.9872 9.60366 65.0702 10.7424H61.4811C61.3359 9.98095 60.9901 9.34642 60.4438 8.8388C59.9044 8.32431 59.1817 8.06707 58.2758 8.06707C57.5082 8.06707 56.834 8.27287 56.2531 8.68445C55.6722 9.08918 55.2192 9.67226 54.8942 10.4337C54.5761 11.1951 54.417 12.1075 54.417 13.1707C54.417 14.2477 54.5761 15.1738 54.8942 15.9489C55.2123 16.7172 55.6584 17.3106 56.2323 17.729C56.8132 18.1406 57.4944 18.3464 58.2758 18.3464C58.8291 18.3464 59.3235 18.2435 59.7592 18.0377C60.2018 17.8251 60.5717 17.5198 60.8691 17.122C61.1664 16.7241 61.3704 16.2405 61.4811 15.6711H65.0702C64.9803 16.7893 64.6483 17.7805 64.0744 18.6448C63.5004 19.5023 62.7189 20.1745 61.73 20.6616C60.7411 21.1418 59.5794 21.3819 58.2447 21.3819Z" fill="#2A2A2A"/>
<path d="M75.2072 21.3819C73.6098 21.3819 72.2302 21.0526 71.0684 20.3941C69.9135 19.7287 69.0249 18.7889 68.4025 17.5747C67.7801 16.3537 67.4689 14.9165 67.4689 13.2633C67.4689 11.6376 67.7801 10.2107 68.4025 8.98285C69.0318 7.74809 69.9101 6.78773 71.0373 6.10175C72.1645 5.40892 73.4888 5.0625 75.0102 5.0625C75.9921 5.0625 76.9188 5.22027 77.7901 5.53582C78.6684 5.84451 79.4429 6.3247 80.1137 6.97637C80.7914 7.62805 81.3239 8.45808 81.7111 9.46646C82.0984 10.468 82.292 11.6616 82.292 13.0473V14.1894H69.2324V11.6787H78.6926C78.6857 10.9653 78.5301 10.3308 78.2258 9.77515C77.9215 9.21265 77.4962 8.7702 76.9499 8.44779C76.4105 8.12538 75.7812 7.96418 75.062 7.96418C74.2944 7.96418 73.6202 8.14939 73.0393 8.51982C72.4584 8.88338 72.0054 9.36357 71.6804 9.96037C71.3623 10.5503 71.1998 11.1986 71.1929 11.9051V14.0968C71.1929 15.016 71.3623 15.8049 71.7011 16.4634C72.04 17.1151 72.5137 17.6159 73.1223 17.9657C73.7308 18.3087 74.4431 18.4802 75.2591 18.4802C75.8054 18.4802 76.2999 18.4047 76.7425 18.2538C77.185 18.096 77.5688 17.8662 77.8939 17.5644C78.2189 17.2626 78.4644 16.8887 78.6303 16.4428L82.1364 16.8338C81.9152 17.753 81.4933 18.5556 80.8709 19.2416C80.2555 19.9207 79.4671 20.4489 78.5059 20.8262C77.5446 21.1966 76.4451 21.3819 75.2072 21.3819Z" fill="#2A2A2A"/>
<path d="M85.4688 27V5.26829H89.1616V7.88186H89.3794C89.5731 7.49771 89.8462 7.08956 90.1989 6.65739C90.5516 6.21837 91.0287 5.84451 91.6304 5.53582C92.232 5.22027 92.9996 5.0625 93.9332 5.0625C95.1641 5.0625 96.274 5.37462 97.2629 5.99886C98.2588 6.61623 99.0471 7.53201 99.628 8.74619C100.216 9.95351 100.51 11.4352 100.51 13.1913C100.51 14.9268 100.223 16.4017 99.6488 17.6159C99.0748 18.83 98.2933 19.7561 97.3044 20.3941C96.3155 21.032 95.1953 21.351 93.9436 21.351C93.0307 21.351 92.2735 21.2001 91.6719 20.8982C91.0702 20.5964 90.5862 20.2329 90.2196 19.8075C89.86 19.3754 89.58 18.9672 89.3794 18.5831H89.2238V27H85.4688ZM89.1512 13.1707C89.1512 14.1928 89.2964 15.088 89.5869 15.8563C89.8842 16.6246 90.3095 17.2248 90.8628 17.657C91.4229 18.0823 92.1006 18.295 92.8959 18.295C93.7257 18.295 94.4207 18.0755 94.9809 17.6364C95.541 17.1905 95.9629 16.5835 96.2464 15.8152C96.5368 15.04 96.6821 14.1585 96.6821 13.1707C96.6821 12.1898 96.5403 11.3186 96.2568 10.5572C95.9732 9.79573 95.5514 9.19893 94.9912 8.76677C94.4311 8.3346 93.7327 8.11852 92.8959 8.11852C92.0937 8.11852 91.4125 8.32774 90.8524 8.74619C90.2923 9.16463 89.867 9.75114 89.5765 10.5057C89.293 11.2603 89.1512 12.1486 89.1512 13.1707Z" fill="#2A2A2A"/>
<path d="M103.725 21.0732V5.26829H110.416C112.304 5.26829 113.794 5.64215 114.887 6.38986C115.986 7.13758 116.536 8.18026 116.536 9.51791C116.536 10.4028 116.225 11.1265 115.603 11.689C114.987 12.2447 114.147 12.6185 113.082 12.8106C113.919 12.8792 114.652 13.0884 115.281 13.4383C115.917 13.7881 116.415 14.2477 116.775 14.8171C117.134 15.3864 117.314 16.0415 117.314 16.7824C117.314 17.6536 117.082 18.4116 116.619 19.0564C116.163 19.6944 115.495 20.1917 114.617 20.5484C113.746 20.8982 112.688 21.0732 111.443 21.0732H103.725ZM107.242 18.1406H111.443C112.134 18.1406 112.677 17.9794 113.071 17.657C113.466 17.3277 113.663 16.8819 113.663 16.3194C113.663 15.6677 113.466 15.1566 113.071 14.7862C112.677 14.4089 112.134 14.2203 111.443 14.2203H107.242V18.1406ZM107.242 11.8125H110.489C111 11.8125 111.439 11.7405 111.806 11.5964C112.172 11.4455 112.453 11.2363 112.646 10.9688C112.84 10.6944 112.937 10.3685 112.937 9.99123C112.937 9.44931 112.712 9.02401 112.262 8.71532C111.82 8.40663 111.204 8.25229 110.416 8.25229H107.242V11.8125Z" fill="#2A2A2A"/>
<path d="M124.033 16.0312L130.413 5.26829H134.271V21.0732H130.641V10.2999L124.282 21.0732H120.413V5.26829H124.033V16.0312Z" fill="#2A2A2A"/>
<path d="M145.078 21.3819C143.487 21.3819 142.121 21.0354 140.98 20.3426C139.846 19.6498 138.971 18.6928 138.356 17.4718C137.747 16.2439 137.443 14.8308 137.443 13.2325C137.443 11.6273 137.754 10.2107 138.377 8.98285C138.999 7.74809 139.877 6.78773 141.011 6.10175C142.152 5.40892 143.501 5.0625 145.057 5.0625C146.35 5.0625 147.494 5.29916 148.49 5.77248C149.493 6.23895 150.292 6.90092 150.886 7.75838C151.481 8.60899 151.82 9.60366 151.903 10.7424H148.314C148.169 9.98095 147.823 9.34642 147.277 8.8388C146.737 8.32431 146.015 8.06707 145.109 8.06707C144.341 8.06707 143.667 8.27287 143.086 8.68445C142.505 9.08918 142.052 9.67226 141.727 10.4337C141.409 11.1951 141.25 12.1075 141.25 13.1707C141.25 14.2477 141.409 15.1738 141.727 15.9489C142.045 16.7172 142.491 17.3106 143.065 17.729C143.646 18.1406 144.327 18.3464 145.109 18.3464C145.662 18.3464 146.156 18.2435 146.592 18.0377C147.035 17.8251 147.405 17.5198 147.702 17.122C147.999 16.7241 148.203 16.2405 148.314 15.6711H151.903C151.813 16.7893 151.481 17.7805 150.907 18.6448C150.333 19.5023 149.552 20.1745 148.563 20.6616C147.574 21.1418 146.412 21.3819 145.078 21.3819Z" fill="#2A2A2A"/>
<path d="M161.193 19.8283V5.5874H164.451V19.8283H161.193ZM155.644 14.3233V11.0924H170V14.3233H155.644Z" fill="#1B63ED"/>
</svg>
