<svg width="20" height="20" viewBox="0 0 20 20" fill="none" xmlns="http://www.w3.org/2000/svg">
<path d="M10.0001 18.3334C5.39771 18.3334 1.66675 14.6025 1.66675 10.0001C1.66675 5.39771 5.39771 1.66675 10.0001 1.66675C14.6025 1.66675 18.3334 5.39771 18.3334 10.0001C18.3284 14.6004 14.6004 18.3284 10.0001 18.3334ZM10.0001 3.33341C6.31818 3.33341 3.33341 6.31818 3.33341 10.0001C3.33341 13.682 6.31818 16.6667 10.0001 16.6667C13.682 16.6667 16.6667 13.682 16.6667 10.0001C16.6626 6.3199 13.6803 3.33755 10.0001 3.33341ZM14.1667 10.8334H9.16675V5.83342H10.8334V9.16675H14.1667V10.8334Z" fill="#1B63ED"/>
</svg>
